# xmcd
#
# Track frame offsets:
#	150
#	10715
#	23065
#	35590
#	43192
#	54350
#	67625
#	79250
#	90180
#	103240
#	113130
#	126547
#	140535
#	150745
#	161925
#	173132
#	185332
#	195265
#	208387
#	220087
#	229490
#	239712
#	250132
#	262212
#	273527
#
# Disc length: 3773 seconds
#
# Revision: 3
# Processed by: cddbd v1.5.2PL0 Copyright (c) Steve Scherf et al.
# Submitted via: audiograbber 1.83.01
#
DISCID=6c0ebb19
DTITLE=Various Artist - Spotlite On Herald Records - Volume 2
DYEAR=1995
DGENRE=Oldies
TTITLE0=Nutmegs - Story Untold  
TTITLE1=Turbans - Valley Of Love  
TTITLE2=Mello-Kings - The Only Girl (I'll Ever Love)  
TTITLE3=Maurice Williams and The Zodiacs - Stay 
TTITLE4=Smart Tones - Ginny  
TTITLE5=Turbans - I'm Nobody's  
TTITLE6=Nutmegs - Comin' Home 
TTITLE7=Dynamics - Forever Love  
TTITLE8=Mello-Kings - Chapel On The Hill  
TTITLE9=Concords - Marlene 
TTITLE10=Turbans - I'll Always Watch Over You 
TTITLE11=Thrillers - Please Talk To Me  
TTITLE12=Nutmegs - My Sweet Dreams  
TTITLE13=5 Willows - Look Me In The Eyes 
TTITLE14=Little Butchie Saunders - Linda Lou  
TTITLE15=Premeers - Diary Of Our Love  
TTITLE16=Mello-Kings - Valerie  
TTITLE17=Turbans - Let Me Show You Around My Heart  
TTITLE18=Nutmegs - Whispering Sorrows  
TTITLE19=Patti and The Emblems - Mixed Up, Shook Up Girl  
TTITLE20=Maurice Williams and The Zodiacs - Running Around  
TTITLE21=Turbans - B-I-N-G-O (Bingo) 
TTITLE22=Little Butchie Saunders - I Wanna Holler 
TTITLE23=5 Willows - Baby, Come A Little Closer 
TTITLE24=Maurice Williams and The Zodiacs - I Remember  
EXTD=
EXTT0=
EXTT1=
EXTT2=
EXTT3=
EXTT4=
EXTT5=
EXTT6=
EXTT7=
EXTT8=
EXTT9=
EXTT10=
EXTT11=
EXTT12=
EXTT13=
EXTT14=
EXTT15=
EXTT16=
EXTT17=
EXTT18=
EXTT19=
EXTT20=
EXTT21=
EXTT22=
EXTT23=
EXTT24=
PLAYORDER=
